<?xml version="1.0" encoding="UTF-8" standalone="no"?>
<!-- Created with Inkscape (http://www.inkscape.org/) -->

<svg
   width="500"
   height="500"
   viewBox="0 0 132.29166 132.29167"
   version="1.1"
   id="svg1"
   xml:space="preserve"
   inkscape:version="1.3.2 (091e20e, 2023-11-25, custom)"
   sodipodi:docname="emerald.svg"
   inkscape:export-filename="emerald.png"
   inkscape:export-xdpi="96"
   inkscape:export-ydpi="96"
   xmlns:inkscape="http://www.inkscape.org/namespaces/inkscape"
   xmlns:sodipodi="http://sodipodi.sourceforge.net/DTD/sodipodi-0.dtd"
   xmlns:xlink="http://www.w3.org/1999/xlink"
   xmlns="http://www.w3.org/2000/svg"
   xmlns:svg="http://www.w3.org/2000/svg"><sodipodi:namedview
     id="namedview1"
     pagecolor="#ffffff"
     bordercolor="#000000"
     borderopacity="0.25"
     inkscape:showpageshadow="2"
     inkscape:pageopacity="0.0"
     inkscape:pagecheckerboard="0"
     inkscape:deskcolor="#d1d1d1"
     inkscape:document-units="px"
     showgrid="false"
     inkscape:zoom="0.51090418"
     inkscape:cx="-61.655397"
     inkscape:cy="388.52687"
     inkscape:window-width="2560"
     inkscape:window-height="1361"
     inkscape:window-x="-9"
     inkscape:window-y="-9"
     inkscape:window-maximized="1"
     inkscape:current-layer="layer1"><inkscape:grid
       id="grid59"
       units="px"
       originx="0"
       originy="0"
       spacingx="13.229166"
       spacingy="13.229166"
       empcolor="#0099e5"
       empopacity="0.30196078"
       color="#0099e5"
       opacity="0.14901961"
       empspacing="5"
       dotted="false"
       gridanglex="30"
       gridanglez="30"
       visible="false" /></sodipodi:namedview><defs
     id="defs1"><linearGradient
       id="linearGradient8"
       inkscape:collect="always"><stop
         style="stop-color:#8fd318;stop-opacity:1;"
         offset="0"
         id="stop8" /><stop
         style="stop-color:#527d2c;stop-opacity:1;"
         offset="1"
         id="stop9" /></linearGradient><linearGradient
       id="linearGradient6"
       inkscape:collect="always"><stop
         style="stop-color:#d9ef58;stop-opacity:1;"
         offset="0"
         id="stop6" /><stop
         style="stop-color:#daee57;stop-opacity:1;"
         offset="1"
         id="stop7" /></linearGradient><linearGradient
       id="linearGradient4"
       inkscape:collect="always"><stop
         style="stop-color:#5f9f04;stop-opacity:1;"
         offset="0"
         id="stop4" /><stop
         style="stop-color:#98c43e;stop-opacity:1;"
         offset="1"
         id="stop5" /></linearGradient><linearGradient
       id="linearGradient2"
       inkscape:collect="always"><stop
         style="stop-color:#7fb610;stop-opacity:1;"
         offset="0"
         id="stop2" /><stop
         style="stop-color:#fefe85;stop-opacity:1;"
         offset="1"
         id="stop3" /></linearGradient><inkscape:path-effect
       effect="fillet_chamfer"
       id="path-effect33"
       is_visible="true"
       lpeversion="1"
       nodesatellites_param="F,0,0,1,0,9,0,1 @ F,0,0,1,0,9,0,1 @ F,0,0,1,0,9,0,1 @ F,0,0,1,0,9,0,1 | F,0,0,1,0,9,0,1 @ F,0,0,1,0,9,0,1 @ F,0,0,1,0,9,0,1 @ F,0,0,1,0,9,0,1 @ F,0,0,1,0,9,0,1 @ F,0,0,1,0,9,0,1 @ F,0,0,1,0,9,0,1 @ F,0,0,1,0,9,0,1 @ F,0,0,1,0,9,0,1 @ F,0,0,1,0,9,0,1 @ F,0,0,1,0,9,0,1 @ F,0,0,1,0,9,0,1 | F,0,0,1,0,9,0,1 @ F,0,0,1,0,9,0,1 @ F,0,0,1,0,9,0,1 @ F,0,0,1,0,9,0,1 | F,0,0,1,0,9,0,1 @ F,0,0,1,0,9,0,1 @ F,0,0,1,0,9,0,1 @ F,0,0,1,0,9,0,1 @ F,0,0,1,0,9,0,1 @ F,0,0,1,0,9,0,1 @ F,0,0,1,0,9,0,1 | F,0,0,1,0,9,0,1 @ F,0,0,1,0,9,0,1 @ F,0,0,1,0,9,0,1 @ F,0,0,1,0,9,0,1"
       radius="10"
       unit="px"
       method="auto"
       mode="F"
       chamfer_steps="1"
       flexible="false"
       use_knot_distance="true"
       apply_no_radius="true"
       apply_with_radius="true"
       only_selected="false"
       hide_knots="false" /><linearGradient
       inkscape:collect="always"
       xlink:href="#linearGradient2"
       id="linearGradient3"
       x1="66.145035"
       y1="132.29167"
       x2="66.145836"
       y2="0"
       gradientUnits="userSpaceOnUse"
       spreadMethod="pad"
       gradientTransform="matrix(0.97875916,0,0,0.97875916,1.4049908,1.4049909)" /><linearGradient
       inkscape:collect="always"
       xlink:href="#linearGradient4"
       id="linearGradient5"
       x1="64.993172"
       y1="118.5928"
       x2="66.145828"
       y2="12.322762"
       gradientUnits="userSpaceOnUse"
       gradientTransform="matrix(0.97875916,0,0,0.97875916,1.4049908,1.4049909)" /><linearGradient
       inkscape:collect="always"
       xlink:href="#linearGradient6"
       id="linearGradient7"
       x1="64.993172"
       y1="118.5928"
       x2="66.145828"
       y2="12.322762"
       gradientUnits="userSpaceOnUse"
       gradientTransform="matrix(0.97875916,0,0,0.97875916,1.4049908,1.4049909)" /><linearGradient
       inkscape:collect="always"
       xlink:href="#linearGradient8"
       id="linearGradient9"
       x1="66.145035"
       y1="132.29167"
       x2="66.145836"
       y2="0"
       gradientUnits="userSpaceOnUse"
       gradientTransform="matrix(0.97875916,0,0,0.97875916,1.4049908,1.4049909)" /></defs><g
     inkscape:label="Layer 1"
     inkscape:groupmode="layer"
     id="layer1"
     style="display:inline"><path
       id="path62"
       style="display:inline;fill:url(#linearGradient3);fill-opacity:1;stroke:url(#linearGradient9);stroke-width:2.08906;stroke-linejoin:round;stroke-dasharray:none;paint-order:normal"
       d="m 116.11444,81.683638 c 0,27.174082 -22.371709,49.203032 -49.968604,49.203032 -27.596896,0 -49.968599,-22.02895 -49.968598,-49.203032 0,-27.174088 22.371703,-80.278647 49.968598,-80.278647 27.596895,5e-7 49.968604,53.10456 49.968604,80.278647 z"
       sodipodi:nodetypes="sssss"
       inkscape:label="Egg" /><path
       d="m 66.145832,13.466007 c -13.745096,8.4e-5 -24.888013,9.484897 -24.887795,21.184418 7.9e-5,8.37312 5.722248,15.590606 14.006276,19.029761 0.02471,0.01636 0.02618,0.03475 0.05665,0.05059 4.049205,2.103408 5.748214,2.655476 10.080856,5.853987 4.125443,3.045548 5.918365,7.962495 7.153863,10.825883 3.041481,-4.614924 2.436991,-6.395214 2.204729,-7.959584 7.393151,5.727307 11.499086,11.388602 11.499086,18.207857 2e-6,9.624936 -9.488168,17.427931 -21.191497,17.427931 -11.703329,0 -21.190994,-7.802995 -21.190993,-17.427931 0,-0.527315 0.03376,-1.061543 0.09053,-1.599302 0.05889,-0.554253 0.145184,-1.092858 0.264528,-1.611439 1.587141,-6.896628 4.95312,-7.534663 7.984872,-8.117894 -1.654902,1.389425 -2.694798,3.358775 -2.694838,5.549503 7.8e-5,4.20628 3.811272,7.616201 8.512409,7.616153 4.70094,-2.02e-4 8.511826,-3.410049 8.511903,-7.616153 -0.03857,-0.549531 -0.110027,-1.05216 -0.179554,-1.557321 C 64.912089,62.752645 56.991812,61.652416 54.967917,60.906886 52.433505,59.973298 50.836521,59.58463 47.436735,57.645061 44.16666,55.779488 42.245302,53.90039 38.49036,49.149849 28.905394,61.126253 26.36865,75.721655 26.36865,85.102258 c 9.79e-4,5.097785 1.439088,10.123639 4.197027,14.66785 0.0123,0.02026 0.02456,0.04052 0.03692,0.06068 0.902659,1.478002 1.939765,2.895782 3.101997,4.240522 0.02961,0.0343 0.05825,0.069 0.08801,0.10318 2.362045,2.71342 5.213848,5.10258 8.452726,7.08154 0.04434,0.0272 0.08956,0.0535 0.134034,0.0804 1.603898,0.97246 3.294743,1.84027 5.057372,2.5957 0.02326,0.0104 0.04652,0.0198 0.0698,0.0299 5.424889,2.3108 11.424935,3.5158 17.51088,3.51673 6.08651,-8.8e-4 12.087104,-1.20607 17.512398,-3.51724 0.02245,-0.009 0.04484,-0.0192 0.06727,-0.0288 1.764292,-0.75607 3.456668,-1.62476 5.061925,-2.59823 0.0424,-0.0257 0.0857,-0.0505 0.127963,-0.0763 3.239965,-1.97942 6.092641,-4.36927 8.455256,-7.08357 0.02976,-0.0341 0.05841,-0.0689 0.08801,-0.10317 1.162864,-1.34536 2.20047,-2.7638 3.103515,-4.242555 0.01146,-0.01869 0.02299,-0.03739 0.03436,-0.05618 2.758927,-4.544846 4.197557,-9.571631 4.198547,-14.670375 C 103.62009,73.661983 99.375036,63.063636 76.800778,52.607841 70.184182,49.543209 56.219744,42.267148 55.296197,36.226385 c -0.19582,0.747643 -2.58177,7.839104 3.708436,11.699883 C 53.01777,46.50728 48.579404,41.42177 48.579334,35.347325 48.57912,28.175 54.757709,22.360324 62.37925,22.360211 c 7.621736,-1.5e-4 17.563847,8.032434 12.187463,16.997 -0.207073,-0.02389 -1.098188,-0.153698 -2.248227,-0.279195 0.941095,-0.993694 1.530941,-2.273169 1.53102,-3.690228 1.3e-4,-3.130656 -2.778324,-5.668608 -6.205511,-5.668364 -3.426987,1.1e-5 -6.205136,2.537888 -6.205005,5.668364 1.04e-4,1.859084 0.993475,3.494269 2.507189,4.527813 0.03223,0.022 0.06036,0.04836 0.09307,0.0698 l 1.217939,0.63274 25.24387,13.112549 C 91.597193,51.342608 92.492867,42.815721 91.033627,34.650425 88.97539,23.133374 79.890932,13.466091 66.145832,13.466007 Z"
       style="display:inline;fill:url(#linearGradient5);stroke:url(#linearGradient7);stroke-width:2.78489;stroke-linecap:round;stroke-linejoin:round;stroke-dasharray:none;paint-order:markers stroke fill"
       id="path7"
       inkscape:label="S" /></g></svg>
